<?xml version="1.0" standalone="no"?>
<!DOCTYPE svg PUBLIC "-//W3C//DTD SVG 20010904//EN"
 "http://www.w3.org/TR/2001/REC-SVG-20010904/DTD/svg10.dtd">
<svg version="1.0" xmlns="http://www.w3.org/2000/svg"
 width="261.000000pt" height="261.000000pt" viewBox="0 0 261.000000 261.000000"
 preserveAspectRatio="xMidYMid meet">
<metadata>
Created by potrace 1.14, written by Peter Selinger 2001-2017
</metadata>
<g transform="translate(0.000000,261.000000) scale(0.100000,-0.100000)"
fill="#000000" stroke="none">
<path d="M672 2462 c-32 -5 -53 -42 -47 -83 2 -19 8 -84 11 -144 8 -133 -4
-186 -75 -320 -26 -49 -50 -100 -53 -113 -8 -27 14 -51 53 -59 16 -3 29 -7 29
-9 0 -2 -13 -23 -30 -46 -16 -22 -30 -45 -30 -49 0 -5 -20 -35 -43 -66 -103
-137 -127 -243 -131 -573 -2 -146 7 -232 30 -285 20 -48 78 -101 132 -119 49
-17 169 -21 239 -7 l42 8 27 -52 c57 -115 162 -199 258 -208 47 -5 131 10 168
29 15 8 53 16 85 18 149 11 258 60 363 166 78 78 119 146 163 269 18 53 27 65
47 68 22 3 72 48 135 124 44 52 135 225 135 256 0 6 14 28 31 49 115 142 127
328 27 431 -37 38 -114 78 -173 88 -57 11 -63 18 -55 71 11 71 4 195 -14 236
-39 91 -117 124 -275 115 -115 -6 -215 -28 -386 -83 l-111 -36 -30 28 c-17 16
-80 58 -140 93 -126 75 -202 132 -234 179 -22 31 -27 33 -74 30 -28 -1 -61 -4
-74 -6z"/>
</g>
</svg>
