{
  "accessors": [
    {
      "bufferView": 1,
      "componentType": 5126,
      "count": 65532,
      "max": [
        0.664700448513031,
        0.8770502209663391,
        1.2765752077102661
      ],
      "min": [
        -0.6647003889083862,
        -0.914167046546936,
        -0.7307908535003662
      ],
      "type": "VEC3"
    },
    {
      "bufferView": 1,
      "byteOffset": 786384,
      "componentType": 5126,
      "count": 65532,
      "max": [
        0.9999833703041077,
        0.9999999403953552,
        0.9999986290931702
      ],
      "min": [
        -0.9999833703041077,
        -0.9999101758003235,
        -0.9988622665405273
      ],
      "type": "VEC3"
    },
    {
      "bufferView": 0,
      "componentType": 5125,
      "count": 375084,
      "type": "SCALAR"
    },
    {
      "bufferView": 1,
      "byteOffset": 1572768,
      "componentType": 5126,
      "count": 9549,
      "max": [
        0.6577485203742981,
        0.8767341375350952,
        1.2755231857299805
      ],
      "min": [
        -0.6643112897872925,
        -0.8882803916931152,
        -0.7307908535003662
      ],
      "type": "VEC3"
    },
    {
      "bufferView": 1,
      "byteOffset": 1687356,
      "componentType": 5126,
      "count": 9549,
      "max": [
        0.9990469813346863,
        0.999545693397522,
        0.999190628528595
      ],
      "min": [
        -0.9998084306716919,
        -0.9921005964279175,
        -0.9983551502227783
      ],
      "type": "VEC3"
    },
    {
      "bufferView": 0,
      "byteOffset": 1500336,
      "componentType": 5125,
      "count": 17376,
      "type": "SCALAR"
    }
  ],
  "asset": {
    "extras": {
      "author": "VAA (https://sketchfab.com/VAA)",
      "license": "SKETCHFAB Editorial (https://sketchfab.com/licenses)",
      "source": "https://sketchfab.com/3d-models/basic-head-structure-f4a7ae95d10c490a9a2428e6243ac06a",
      "title": "Basic Head Structure"
    },
    "generator": "Sketchfab-11.62.0",
    "version": "2.0"
  },
  "bufferViews": [
    {
      "buffer": 0,
      "byteLength": 1569840,
      "name": "floatBufferViews",
      "target": 34963
    },
    {
      "buffer": 0,
      "byteLength": 1801944,
      "byteOffset": 1569840,
      "byteStride": 12,
      "name": "floatBufferViews",
      "target": 34962
    }
  ],
  "buffers": [
    {
      "byteLength": 3371784,
      "uri": "scene.bin"
    }
  ],
  "materials": [
    {
      "doubleSided": true,
      "name": "material_0",
      "pbrMetallicRoughness": {
        "baseColorFactor": [
          0.3239592264,
          0.3239592264,
          0.3239592264,
          1.0
        ],
        "metallicFactor": 0.0,
        "roughnessFactor": 0.6
      }
    }
  ],
  "meshes": [
    {
      "name": "Object_0",
      "primitives": [
        {
          "attributes": {
            "NORMAL": 1,
            "POSITION": 0
          },
          "indices": 2,
          "material": 0,
          "mode": 4
        }
      ]
    },
    {
      "name": "Object_1",
      "primitives": [
        {
          "attributes": {
            "NORMAL": 4,
            "POSITION": 3
          },
          "indices": 5,
          "material": 0,
          "mode": 4
        }
      ]
    }
  ],
  "nodes": [
    {
      "children": [
        1
      ],
      "matrix": [
        1.0,
        0.0,
        0.0,
        0.0,
        0.0,
        2.220446049250313e-16,
        -1.0,
        0.0,
        0.0,
        1.0,
        2.220446049250313e-16,
        0.0,
        0.0,
        0.0,
        0.0,
        1.0
      ],
      "name": "Sketchfab_model"
    },
    {
      "children": [
        2,
        3
      ],
      "name": "Basic Head Structure.obj.cleaner.materialmerger.gles"
    },
    {
      "mesh": 0,
      "name": "Object_2"
    },
    {
      "mesh": 1,
      "name": "Object_3"
    }
  ],
  "scene": 0,
  "scenes": [
    {
      "name": "Sketchfab_Scene",
      "nodes": [
        0
      ]
    }
  ]
}
